<svg viewBox="0 0 240 240" xmlns="http://www.w3.org/2000/svg">
    <title>
        Moon
    </title>
    <path d="M182.818 33.71l-27.6 21.163 9.927 33.382-28.69-19.746-28.691 19.746 9.927-33.382-27.6-21.164 34.8-.982L136.455 0l11.563 32.727 34.8.982zM221 109.09l-17.89 13.637 6.435 21.6L191 131.564l-18.545 12.763 6.436-21.6L161 109.091l22.473-.546L191 87.273l7.527 21.272 22.473.546zm-24.873 54c9.055-.872 18.764 12 12.982 20.183-3.49 4.909-7.2 9.49-11.782 13.854C154.673 240 85.618 240 43.073 197.127.418 154.582.418 85.418 43.073 42.873c4.363-4.364 8.945-8.291 13.854-11.782 8.182-5.782 21.055 3.927 20.182 12.982-2.945 31.2 7.527 63.6 31.527 87.49 23.891 24 56.182 34.473 87.491 31.528zm-17.89 22.037c-30.873-1.745-61.419-14.509-85.092-37.854-23.672-23.891-36.327-54.546-38.072-85.31-30.655 34.255-29.455 86.837 3.382 119.782 32.945 32.837 85.527 34.037 119.781 3.382z" fill-rule="nonzero"/>
</svg>
