<svg width="20" height="20" viewBox="0 0 20 20" fill="none" xmlns="http://www.w3.org/2000/svg">
<path d="M9.84 12.264C9.688 12.264 9.56 12.22 9.456 12.132C9.36 12.036 9.312 11.924 9.312 11.796C9.312 11.436 9.376 11.12 9.504 10.848C9.632 10.576 9.78 10.352 9.948 10.176C10.124 9.992 10.356 9.784 10.644 9.552C10.948 9.312 11.172 9.104 11.316 8.928C11.46 8.752 11.532 8.552 11.532 8.328C11.532 7.456 10.96 7.02 9.816 7.02C9.536 7.02 9.26 7.056 8.988 7.128C8.724 7.192 8.488 7.288 8.28 7.416C8.184 7.48 8.084 7.512 7.98 7.512C7.852 7.512 7.74 7.464 7.644 7.368C7.548 7.272 7.5 7.16 7.5 7.032C7.5 6.848 7.6 6.696 7.8 6.576C8.128 6.368 8.46 6.22 8.796 6.132C9.132 6.044 9.504 6 9.912 6C10.728 6 11.38 6.204 11.868 6.612C12.364 7.02 12.612 7.572 12.612 8.268C12.612 8.58 12.556 8.856 12.444 9.096C12.332 9.328 12.196 9.528 12.036 9.696C11.876 9.856 11.664 10.04 11.4 10.248C11.056 10.52 10.796 10.768 10.62 10.992C10.452 11.208 10.368 11.476 10.368 11.796C10.368 11.924 10.316 12.036 10.212 12.132C10.108 12.22 9.984 12.264 9.84 12.264ZM9.816 14.544C9.624 14.544 9.456 14.476 9.312 14.34C9.176 14.196 9.108 14.024 9.108 13.824C9.108 13.632 9.176 13.468 9.312 13.332C9.456 13.188 9.624 13.116 9.816 13.116C10.016 13.116 10.184 13.188 10.32 13.332C10.464 13.468 10.536 13.632 10.536 13.824C10.536 14.024 10.464 14.196 10.32 14.34C10.184 14.476 10.016 14.544 9.816 14.544Z" fill="currentColor"/>
<path d="M10 19C11.1819 19 12.3522 18.7672 13.4442 18.3149C14.5361 17.8626 15.5282 17.1997 16.364 16.364C17.1997 15.5282 17.8626 14.5361 18.3149 13.4442C18.7672 12.3522 19 11.1819 19 10C19 8.8181 18.7672 7.64778 18.3149 6.55585C17.8626 5.46392 17.1997 4.47177 16.364 3.63604C15.5282 2.80031 14.5361 2.13738 13.4442 1.68508C12.3522 1.23279 11.1819 1 10 1C7.61305 1 5.32387 1.94821 3.63604 3.63604C1.94821 5.32387 1 7.61305 1 10C1 12.3869 1.94821 14.6761 3.63604 16.364C5.32387 18.0518 7.61305 19 10 19Z" stroke="currentColor" stroke-linecap="round" stroke-linejoin="round"/>
</svg>
