<svg viewBox="0 0 240 240" xmlns="http://www.w3.org/2000/svg">
    <title>
        Motion Full
    </title>
    <g fill-rule="evenodd">
        <path d="M56 70.01C43.04 82.714 35 100.418 35 120s8.04 37.286 21 49.99c-.332.007-.666.01-1 .01-27.614 0-50-22.386-50-50s22.386-50 50-50c.334 0 .668.003 1 .01z" fill-rule="nonzero"/>
        <path d="M111.67 60.367C95.303 75.015 85 96.305 85 120s10.302 44.985 26.67 59.633c-2.19.243-4.415.367-6.67.367-33.137 0-60-26.863-60-60s26.863-60 60-60c2.255 0 4.48.124 6.67.367z" fill-rule="nonzero"/>
        <circle fill-rule="nonzero" cx="165" cy="120" r="70"/>
    </g>
</svg>
