<svg viewBox="0 0 240 240" xmlns="http://www.w3.org/2000/svg">
    <title>
        Motion
    </title>
    <g fill-rule="evenodd">
        <path d="M56 70.01c-6.886 6.75-12.383 14.912-16.023 24.017C31.023 99.217 25 108.905 25 120c0 11.095 6.023 20.783 14.977 25.973 3.64 9.105 9.137 17.267 16.023 24.017-.332.007-.666.01-1 .01-27.614 0-50-22.386-50-50s22.386-50 50-50c.334 0 .668.003 1 .01z" fill-rule="nonzero"/>
        <path d="M111.67 60.367c-6.66 5.96-12.317 13.021-16.683 20.897C77.74 85.709 65 101.366 65 120c0 18.634 12.741 34.291 29.987 38.736 4.366 7.876 10.023 14.936 16.684 20.897-2.19.243-4.416.367-6.671.367-33.137 0-60-26.863-60-60s26.863-60 60-60c2.255 0 4.48.124 6.67.367z" fill-rule="nonzero"/>
        <path d="M165 190c-38.66 0-70-31.34-70-70s31.34-70 70-70 70 31.34 70 70-31.34 70-70 70zm0-20c27.614 0 50-22.386 50-50s-22.386-50-50-50-50 22.386-50 50 22.386 50 50 50z" fill-rule="nonzero"/>
    </g>
</svg>
